<svg xmlns="http://www.w3.org/2000/svg" version="1.1" xmlns:xlink="http://www.w3.org/1999/xlink" xmlns:svgjs="http://svgjs.dev/svgjs" width="765" height="625" viewBox="0 0 508.21201171875 300" class="svg-animations " style="background-color: rgb(79, 57, 246);"><svg viewBox="0 0 163.01300048828125 139" width="110.00000000000001" height="110.00000000000001" style="fill: rgb(255, 255, 255);" x="42.35100097656248" y="95"><svg width="163" height="134" viewBox="0 0 163 134" xmlns="http://www.w3.org/2000/svg">
	<g clip-path="url(#clip0)">
	<path d="M79.703 44.9371H140.585C144.773 44.9371 148.192 41.5127 148.192 37.3167C148.192 33.1207 144.773 29.6963 140.585 29.6963H79.703C75.5145 29.6963 72.0962 33.1207 72.0962 37.3167C72.0962 41.5127 75.5145 44.9371 79.703 44.9371Z"></path>
	<path d="M96.5243 15.2408H125.763C129.951 15.2408 133.37 11.8164 133.37 7.6204C133.37 3.42444 129.938 0 125.763 0H96.5243C92.3358 0 88.9175 3.42444 88.9175 7.6204C88.9175 11.8164 92.3358 15.2408 96.5243 15.2408Z"></path>
	<path d="M37.2506 15.2408H66.489C70.6775 15.2408 74.0959 11.8164 74.0959 7.6204C74.0959 3.42444 70.664 0 66.489 0H37.2506C33.0622 0 29.6438 3.42444 29.6438 7.6204C29.6438 11.8164 33.0622 15.2408 37.2506 15.2408Z"></path>
	<path d="M48.8432 44.5182H55.6123C59.8008 44.5182 63.2192 41.0937 63.2192 36.8977C63.2192 32.7018 59.8008 29.2773 55.6123 29.2773H48.8432C44.6547 29.2773 41.2363 32.7018 41.2363 36.8977C41.2363 41.0937 44.6547 44.5182 48.8432 44.5182Z"></path>
	<path d="M155.393 59.3799H94.5248C90.3363 59.3799 86.918 62.8043 86.918 67.0003C86.918 71.1962 90.3363 74.6207 94.5248 74.6207H155.407C159.595 74.6207 163.013 71.1962 163.013 67.0003C163 62.8043 159.582 59.3799 155.393 59.3799Z"></path>
	<path d="M78.0277 66.5804C78.0277 62.3844 74.6093 58.96 70.4208 58.96H52.059C47.8705 58.96 44.4521 62.3844 44.4521 66.5804C44.4521 70.7763 47.8705 74.2008 52.059 74.2008H70.4208C74.6093 74.2008 78.0277 70.7763 78.0277 66.5804Z"></path>
	<path d="M33.5755 66.5804C33.5755 62.3844 30.1572 58.96 25.9687 58.96H7.60685C3.41835 58.96 0 62.3844 0 66.5804C0 70.7763 3.41835 74.2008 7.60685 74.2008H25.9687C30.1572 74.2008 33.5755 70.7763 33.5755 66.5804Z"></path>
	<path d="M140.571 89.0762H79.703C75.5145 89.0762 72.0962 92.5006 72.0962 96.6966C72.0962 100.893 75.5145 104.317 79.703 104.317H140.585C144.773 104.317 148.192 100.893 148.192 96.6966C148.192 92.5006 144.76 89.0762 140.571 89.0762Z"></path>
	<path d="M125.763 118.759H96.5243C92.3358 118.759 88.9175 122.183 88.9175 126.379C88.9175 130.575 92.3358 134 96.5243 134H125.763C129.951 134 133.37 130.575 133.37 126.379C133.37 122.183 129.938 118.759 125.763 118.759Z"></path>
	<path d="M66.489 118.759H37.2506C33.0622 118.759 29.6438 122.183 29.6438 126.379C29.6438 130.575 33.0622 134 37.2506 134H66.489C70.6775 134 74.0959 130.575 74.0959 126.379C74.0959 122.183 70.664 118.759 66.489 118.759Z"></path>
	<path d="M48.8432 104.737H55.6123C59.8008 104.737 63.2192 101.312 63.2192 97.1165C63.2192 92.9205 59.8008 89.4961 55.6123 89.4961H48.8432C44.6547 89.4961 41.2363 92.9205 41.2363 97.1165C41.2363 101.312 44.6547 104.737 48.8432 104.737Z"></path>
	</g>
	</svg></svg><svg style="fill: rgb(255, 255, 255);" x="162.3510009765625" y="130"><path d="M20.83 26L5.47 26Q3.87 26 2.75 24.88Q1.63 23.76 1.63 22.16L1.63 22.16L1.63 21.26L4.22 21.26L4.22 22.16Q4.22 22.67 4.59 23.04Q4.96 23.41 5.47 23.41L5.47 23.41L20.83 23.41Q21.34 23.41 21.71 23.04Q22.08 22.67 22.08 22.16L22.08 22.16L22.08 17.01Q22.08 16.50 21.71 16.14Q21.34 15.79 20.83 15.79L20.83 15.79L5.47 15.79Q3.87 15.79 2.75 14.66Q1.63 13.52 1.63 11.95L1.63 11.95L1.63 6.80Q1.63 5.20 2.75 4.08Q3.87 2.96 5.47 2.96L5.47 2.96L20.83 2.96Q22.43 2.96 23.55 4.08Q24.67 5.20 24.67 6.80L24.67 6.80L24.67 7.70L22.08 7.70L22.08 6.80Q22.08 6.29 21.71 5.92Q21.34 5.55 20.83 5.55L20.83 5.55L5.47 5.55Q4.96 5.55 4.59 5.92Q4.22 6.29 4.22 6.80L4.22 6.80L4.22 11.95Q4.22 12.46 4.59 12.82Q4.96 13.17 5.47 13.17L5.47 13.17L20.83 13.17Q22.43 13.17 23.55 14.30Q24.67 15.44 24.67 17.01L24.67 17.01L24.67 22.16Q24.67 23.76 23.55 24.88Q22.43 26 20.83 26L20.83 26ZM45.86 33.36L43.23 33.36L43.23 26L30.85 26Q29.22 26 28.08 24.86Q26.94 23.73 26.94 22.13L26.94 22.13L26.94 11.31Q26.94 9.71 28.08 8.58Q29.22 7.44 30.85 7.44L30.85 7.44L45.86 7.44L45.86 33.36ZM30.85 23.38L30.85 23.38L41.98 23.38Q42.50 23.38 42.86 23.01Q43.23 22.64 43.23 22.13L43.23 22.13L43.23 11.31Q43.23 10.80 42.86 10.43Q42.50 10.06 41.98 10.06L41.98 10.06L30.85 10.06Q30.34 10.06 29.97 10.43Q29.60 10.80 29.60 11.31L29.60 11.31L29.60 22.13Q29.60 22.64 29.97 23.01Q30.34 23.38 30.85 23.38ZM56.22 26L53.09 26Q51.49 26 50.35 24.86Q49.22 23.73 49.22 22.13L49.22 22.13L49.22 1.36L51.84 1.36L51.84 22.13Q51.84 22.64 52.21 23.01Q52.58 23.38 53.09 23.38L53.09 23.38L56.22 23.38L56.22 26ZM86.75 26L71.39 26Q69.79 26 68.67 24.88Q67.55 23.76 67.55 22.16L67.55 22.16L67.55 21.26L70.14 21.26L70.14 22.16Q70.14 22.67 70.51 23.04Q70.88 23.41 71.39 23.41L71.39 23.41L86.75 23.41Q87.26 23.41 87.63 23.04Q88.00 22.67 88.00 22.16L88.00 22.16L88.00 17.01Q88.00 16.50 87.63 16.14Q87.26 15.79 86.75 15.79L86.75 15.79L71.39 15.79Q69.79 15.79 68.67 14.66Q67.55 13.52 67.55 11.95L67.55 11.95L67.55 6.80Q67.55 5.20 68.67 4.08Q69.79 2.96 71.39 2.96L71.39 2.96L86.75 2.96Q88.35 2.96 89.47 4.08Q90.59 5.20 90.59 6.80L90.59 6.80L90.59 7.70L88.00 7.70L88.00 6.80Q88.00 6.29 87.63 5.92Q87.26 5.55 86.75 5.55L86.75 5.55L71.39 5.55Q70.88 5.55 70.51 5.92Q70.14 6.29 70.14 6.80L70.14 6.80L70.14 11.95Q70.14 12.46 70.51 12.82Q70.88 13.17 71.39 13.17L71.39 13.17L86.75 13.17Q88.35 13.17 89.47 14.30Q90.59 15.44 90.59 17.01L90.59 17.01L90.59 22.16Q90.59 23.76 89.47 24.88Q88.35 26 86.75 26L86.75 26ZM112.77 26L97.73 26Q96.13 26 94.99 24.86Q93.86 23.73 93.86 22.13L93.86 22.13L93.86 11.31Q93.86 9.71 94.99 8.58Q96.13 7.44 97.73 7.44L97.73 7.44L112.70 7.44L112.70 10.06L97.73 10.06Q97.22 10.06 96.85 10.43Q96.48 10.80 96.48 11.31L96.48 11.31L96.48 22.13Q96.48 22.64 96.85 23.01Q97.22 23.38 97.73 23.38L97.73 23.38L112.77 23.38L112.77 26ZM118.75 26L116.13 26L116.13 11.31Q116.13 9.71 117.26 8.58Q118.40 7.44 120.00 7.44L120.00 7.44L130.43 7.44L130.43 10.06L120.00 10.06Q119.49 10.06 119.12 10.43Q118.75 10.80 118.75 11.31L118.75 11.31L118.75 26ZM135.14 26L132.51 26L132.51 7.44L135.14 7.44L135.14 26ZM135.14 3.98L132.51 3.98L132.51 1.36L135.14 1.36L135.14 3.98ZM141.06 33.36L138.43 33.36L138.43 7.44L153.47 7.44Q155.07 7.44 156.21 8.58Q157.34 9.71 157.34 11.31L157.34 11.31L157.34 22.13Q157.34 23.73 156.21 24.86Q155.07 26 153.47 26L153.47 26L141.06 26L141.06 33.36ZM142.34 23.38L142.34 23.38L153.47 23.38Q153.98 23.38 154.35 23.01Q154.72 22.64 154.72 22.13L154.72 22.13L154.72 11.31Q154.72 10.80 154.35 10.43Q153.98 10.06 153.47 10.06L153.47 10.06L142.34 10.06Q141.82 10.06 141.44 10.43Q141.06 10.80 141.06 11.31L141.06 11.31L141.06 22.13Q141.06 22.64 141.44 23.01Q141.82 23.38 142.34 23.38ZM170.30 26L163.52 26Q161.89 26 160.77 24.86Q159.65 23.73 159.65 22.13L159.65 22.13L159.65 1.36L162.27 1.36L162.27 7.44L170.30 7.44L170.30 10.06L162.27 10.06L162.27 22.13Q162.27 22.64 162.64 23.01Q163.01 23.38 163.52 23.38L163.52 23.38L170.30 23.38L170.30 26ZM184.16 26L181.57 26L181.57 2.96L185.12 2.96L194.69 14.35L204.26 2.96L207.81 2.96L207.81 26L205.22 26L205.22 5.90L194.69 18.42L184.16 5.90L184.16 26ZM230.05 26L215.01 26Q213.41 26 212.27 24.86Q211.14 23.73 211.14 22.13L211.14 22.13L211.14 15.41L227.39 15.41L227.39 11.31Q227.39 10.80 227.02 10.43Q226.66 10.06 226.14 10.06L226.14 10.06L211.14 10.06L211.14 7.44L226.14 7.44Q227.78 7.44 228.91 8.58Q230.05 9.71 230.05 11.31L230.05 11.31L230.05 26ZM215.01 23.38L215.01 23.38L227.39 23.38L227.39 18.03L213.76 18.03L213.76 22.13Q213.76 22.64 214.13 23.01Q214.50 23.38 215.01 23.38ZM236.03 26L233.41 26L233.41 1.36L236.03 1.36L236.03 15.41L241.15 15.41L248.45 7.44L251.90 7.44L251.90 7.47L243.49 16.72L251.87 25.97L251.87 26L248.45 26L241.15 18.03L236.03 18.03L236.03 26ZM272.74 26L257.70 26Q256.10 26 254.96 24.86Q253.82 23.73 253.82 22.13L253.82 22.13L253.82 11.31Q253.82 9.71 254.96 8.58Q256.10 7.44 257.70 7.44L257.70 7.44L268.83 7.44Q270.46 7.44 271.60 8.58Q272.74 9.71 272.74 11.31L272.74 11.31L272.74 18.03L256.45 18.03L256.45 22.13Q256.45 22.64 256.82 23.01Q257.18 23.38 257.70 23.38L257.70 23.38L272.74 23.38L272.74 26ZM256.45 11.31L256.45 15.41L270.08 15.41L270.08 11.31Q270.08 10.80 269.71 10.43Q269.34 10.06 268.83 10.06L268.83 10.06L257.70 10.06Q257.18 10.06 256.82 10.43Q256.45 10.80 256.45 11.31L256.45 11.31ZM278.46 26L275.84 26L275.84 11.31Q275.84 9.71 276.98 8.58Q278.11 7.44 279.71 7.44L279.71 7.44L290.14 7.44L290.14 10.06L279.71 10.06Q279.20 10.06 278.83 10.43Q278.46 10.80 278.46 11.31L278.46 11.31L278.46 26Z"></path></svg><text fill="#ffffff" font-family="Arial" font-size="16px" x="309.106005859375" y="170"><tspan dy="0" x="309.106005859375"></tspan></text></svg>